<svg id="el1YZHwGz9v1" xmlns="http://www.w3.org/2000/svg" xmlns:xlink="http://www.w3.org/1999/xlink" viewBox="0 0 70 50" shape-rendering="geometricPrecision" text-rendering="geometricPrecision"><polygon points="23.122234,-13.715263 58.122234,36.284737 -11.877766,36.284737 23.122234,-13.715263" transform="translate(11.877766 13.715263)" fill="#4ad4c7" stroke-width="0"/><path d="M25.080663,10.9375C23.273283,9.125,20.777974,8,18.013746,8C12.485291,8,8.02,12.475,8.02,18s4.465291,10,9.993746,10c4.659162,0,8.561601-3.1875,9.668543-7.5h-2.601626c-1.031895,2.9125-3.796123,5-7.066917,5-4.146341,0-7.50469-3.35625-7.50469-7.5s3.358349-7.5,7.50469-7.5c2.070044,0,3.927455.8625,5.284553,2.21875L19.264528,16.75h8.755472v-8.75l-2.939337,2.9375Z" transform="translate(16.98 16)" fill="#fff"/><path d="M0,0h48v48h-48Z" fill="none"/></svg>
