<?xml version="1.0" encoding="UTF-8" standalone="no"?>
<svg
   id="el1YZHwGz9v1"
   viewBox="0 0 70 50"
   shape-rendering="geometricPrecision"
   text-rendering="geometricPrecision"
   version="1.1"
   sodipodi:docname="clear-btn.svg"
   inkscape:version="1.2.2 (732a01da63, 2022-12-09)"
   xmlns:inkscape="http://www.inkscape.org/namespaces/inkscape"
   xmlns:sodipodi="http://sodipodi.sourceforge.net/DTD/sodipodi-0.dtd"
   xmlns="http://www.w3.org/2000/svg"
   xmlns:svg="http://www.w3.org/2000/svg">
  <defs
     id="defs3883" />
  <sodipodi:namedview
     id="namedview3881"
     pagecolor="#ffffff"
     bordercolor="#000000"
     borderopacity="0.25"
     inkscape:showpageshadow="2"
     inkscape:pageopacity="0.0"
     inkscape:pagecheckerboard="0"
     inkscape:deskcolor="#d1d1d1"
     showgrid="true"
     inkscape:zoom="8.6428571"
     inkscape:cx="18.049587"
     inkscape:cy="12.033058"
     inkscape:window-width="2560"
     inkscape:window-height="1377"
     inkscape:window-x="1912"
     inkscape:window-y="-8"
     inkscape:window-maximized="1"
     inkscape:current-layer="el1YZHwGz9v1">
    <inkscape:grid
       type="xygrid"
       id="grid3885" />
  </sodipodi:namedview>
  <polygon
     points="23.122234,-13.715263 58.122234,36.284737 -11.877766,36.284737 23.122234,-13.715263"
     transform="translate(11.877766 13.715263)"
     fill="#4ad4c7"
     stroke-width="0"
     id="polygon3874" />
  <path
     d="M25.080663,10.9375C23.273283,9.125,20.777974,8,18.013746,8C12.485291,8,8.02,12.475,8.02,18s4.465291,10,9.993746,10c4.659162,0,8.561601-3.1875,9.668543-7.5h-2.601626c-1.031895,2.9125-3.796123,5-7.066917,5-4.146341,0-7.50469-3.35625-7.50469-7.5s3.358349-7.5,7.50469-7.5c2.070044,0,3.927455.8625,5.284553,2.21875L19.264528,16.75h8.755472v-8.75l-2.939337,2.9375Z"
     transform="translate(16.98 16)"
     fill="#fff"
     id="path3876" />
  <path
     d="M0,0h48v48h-48Z"
     fill="none"
     id="path3878" />
</svg>
